<?xml version="1.0" encoding="UTF-8"?>
<svg xmlns="http://www.w3.org/2000/svg" xmlns:xlink="http://www.w3.org/1999/xlink" width="375pt" height="374.999991pt" viewBox="0 0 375 374.999991" version="1.2">
<defs>
<clipPath id="clip1">
  <path d="M 129 114.367188 L 245 114.367188 L 245 241.117188 L 129 241.117188 Z M 129 114.367188 "/>
</clipPath>
</defs>
<g id="surface1">
<g clip-path="url(#clip1)" clip-rule="nonzero">
<path style=" stroke:none;fill-rule:evenodd;fill:rgb(0%,0%,0%);fill-opacity:1;" d="M 187.179688 177.855469 C 169.808594 177.855469 155.714844 163.636719 155.714844 146.109375 C 155.714844 128.585938 169.808594 114.367188 187.179688 114.367188 C 204.550781 114.367188 218.644531 128.585938 218.644531 146.109375 C 218.644531 163.636719 204.550781 177.855469 187.179688 177.855469 Z M 187.179688 172.5625 C 201.65625 172.5625 213.398438 160.714844 213.398438 146.109375 C 213.398438 131.507812 201.65625 119.660156 187.179688 119.660156 C 172.703125 119.660156 160.960938 131.507812 160.960938 146.109375 C 160.960938 160.714844 172.703125 172.5625 187.179688 172.5625 Z M 129.496094 238.695312 L 129.496094 228.113281 C 129.496094 206.703125 143.667969 188.433594 171.445312 188.433594 L 202.910156 188.433594 C 230.6875 188.433594 244.863281 206.703125 244.863281 228.113281 L 244.863281 238.695312 C 244.863281 240.15625 243.691406 241.339844 242.242188 241.339844 L 132.117188 241.339844 C 130.667969 241.339844 129.496094 240.15625 129.496094 238.695312 Z M 171.445312 193.726562 C 146.894531 193.726562 134.738281 209.40625 134.738281 228.113281 L 134.738281 236.050781 L 239.621094 236.050781 L 239.621094 228.113281 C 239.621094 209.40625 227.464844 193.726562 202.910156 193.726562 Z M 171.445312 193.726562 "/>
</g>
</g>
</svg>
