<?xml version="1.0" encoding="UTF-8"?>
<svg xmlns="http://www.w3.org/2000/svg" xmlns:xlink="http://www.w3.org/1999/xlink" width="375pt" height="374.999991pt" viewBox="0 0 375 374.999991" version="1.2">
<defs>
<clipPath id="clip1">
  <path d="M 145 121.972656 L 252.800781 121.972656 L 252.800781 243 L 145 243 Z M 145 121.972656 "/>
</clipPath>
</defs>
<g id="surface1">
<rect x="0" y="0" width="375" height="374.999991" style="fill:rgb(100%,100%,100%);fill-opacity:1;stroke:none;"/>
<rect x="0" y="0" width="375" height="374.999991" style="fill:rgb(100%,100%,100%);fill-opacity:1;stroke:none;"/>
<rect x="0" y="0" width="375" height="374.999991" style="fill:rgb(100%,100%,100%);fill-opacity:1;stroke:none;"/>
<path style=" stroke:none;fill-rule:nonzero;fill:rgb(0%,0%,0%);fill-opacity:1;" d="M 185.816406 238.09375 C 177.160156 244.5625 165.957031 246.304688 155.671875 243.183594 C 145.882812 240.207031 137.859375 232.289062 134.382812 222.714844 C 130.6875 212.515625 132.351562 201.261719 138.339844 192.3125 C 146.464844 180.164062 162.175781 175.316406 175.921875 179.492188 C 189.738281 183.695312 199.046875 197.046875 199.171875 211.3125 C 199.078125 221.785156 194.253906 231.792969 185.816406 238.09375 Z M 163.117188 170.753906 C 139.78125 172.222656 122.433594 193.933594 125.5625 216.980469 C 128.390625 237.863281 147.539062 253.25 168.46875 251.925781 C 189.675781 250.585938 206.261719 232.460938 206.453125 211.363281 C 206.242188 188.121094 186.414062 169.28125 163.117188 170.753906 "/>
<path style=" stroke:none;fill-rule:nonzero;fill:rgb(13.729858%,12.159729%,12.548828%);fill-opacity:1;" d="M 185.816406 238.09375 L 185.355469 237.472656 C 179.625 241.75 172.753906 243.914062 165.785156 243.914062 C 162.472656 243.914062 159.136719 243.425781 155.898438 242.441406 C 146.359375 239.546875 138.5 231.796875 135.113281 222.449219 C 133.828125 218.894531 133.203125 215.207031 133.203125 211.535156 C 133.203125 204.929688 135.21875 198.371094 138.984375 192.746094 C 142.007812 188.226562 146.105469 184.742188 150.773438 182.382812 C 155.441406 180.023438 160.675781 178.796875 165.953125 178.796875 C 169.226562 178.796875 172.515625 179.269531 175.695312 180.238281 C 182.429688 182.285156 188.074219 186.5625 192.050781 192.082031 C 196.03125 197.601562 198.335938 204.355469 198.394531 211.320312 L 199.171875 211.3125 L 198.394531 211.304688 C 198.304688 221.546875 193.585938 231.324219 185.355469 237.472656 L 186.28125 238.714844 C 194.921875 232.261719 199.851562 222.023438 199.949219 211.320312 L 199.949219 211.304688 C 199.882812 204.003906 197.472656 196.949219 193.3125 191.175781 C 189.148438 185.398438 183.230469 180.90625 176.148438 178.75 C 172.816406 177.738281 169.375 177.242188 165.953125 177.242188 C 160.433594 177.242188 154.964844 178.523438 150.074219 180.996094 C 145.183594 183.46875 140.871094 187.128906 137.691406 191.882812 C 133.761719 197.757812 131.652344 204.613281 131.652344 211.535156 C 131.652344 215.382812 132.304688 219.253906 133.65625 222.980469 C 137.214844 232.785156 145.402344 240.867188 155.445312 243.925781 C 158.832031 244.957031 162.320312 245.46875 165.785156 245.46875 C 173.074219 245.46875 180.277344 243.203125 186.28125 238.71875 Z M 163.117188 170.753906 L 163.070312 169.976562 C 152.105469 170.667969 142.4375 175.742188 135.523438 183.300781 C 128.601562 190.859375 124.421875 200.910156 124.417969 211.578125 C 124.417969 213.398438 124.542969 215.238281 124.792969 217.085938 C 126.175781 227.304688 131.394531 236.234375 138.796875 242.597656 C 146.199219 248.964844 155.796875 252.78125 165.957031 252.78125 C 166.808594 252.78125 167.660156 252.753906 168.519531 252.699219 C 179.332031 252.015625 188.964844 247.054688 195.910156 239.582031 C 202.855469 232.109375 207.132812 222.121094 207.226562 211.371094 L 207.226562 211.355469 C 207.015625 188.539062 188.28125 169.898438 165.671875 169.894531 C 164.808594 169.894531 163.941406 169.921875 163.070312 169.976562 L 163.117188 170.753906 L 163.167969 171.527344 C 164.007812 171.472656 164.84375 171.445312 165.671875 171.445312 C 176.542969 171.445312 186.492188 175.933594 193.753906 183.171875 C 201.015625 190.410156 205.578125 200.390625 205.675781 211.371094 L 206.453125 211.363281 L 205.675781 211.355469 C 205.582031 221.699219 201.46875 231.324219 194.773438 238.523438 C 188.078125 245.722656 178.8125 250.492188 168.421875 251.148438 C 167.597656 251.199219 166.777344 251.226562 165.957031 251.226562 C 156.1875 251.226562 146.945312 247.554688 139.8125 241.421875 C 132.675781 235.28125 127.660156 226.699219 126.332031 216.875 C 126.089844 215.097656 125.972656 213.332031 125.972656 211.578125 C 125.972656 201.316406 130 191.632812 136.667969 184.347656 C 143.335938 177.0625 152.628906 172.191406 163.167969 171.527344 L 163.117188 170.753906 "/>
<path style=" stroke:none;fill-rule:nonzero;fill:rgb(13.729858%,12.159729%,12.548828%);fill-opacity:1;" d="M 167.519531 180.148438 L 164.128906 180.148438 L 164.128906 188.71875 L 167.519531 188.71875 L 167.519531 180.148438 "/>
<path style=" stroke:none;fill-rule:nonzero;fill:rgb(13.729858%,12.159729%,12.548828%);fill-opacity:1;" d="M 164.128906 242.75 L 167.519531 242.75 L 167.519531 234.179688 L 164.128906 234.179688 L 164.128906 242.75 "/>
<path style=" stroke:none;fill-rule:nonzero;fill:rgb(13.729858%,12.159729%,12.548828%);fill-opacity:1;" d="M 188.375 213.148438 L 196.9375 213.148438 L 196.9375 209.75 L 188.375 209.75 L 188.375 213.148438 "/>
<path style=" stroke:none;fill-rule:nonzero;fill:rgb(13.729858%,12.159729%,12.548828%);fill-opacity:1;" d="M 142.949219 209.75 L 134.378906 209.75 L 134.378906 213.148438 L 142.949219 213.148438 L 142.949219 209.75 "/>
<path style=" stroke:none;fill-rule:nonzero;fill:rgb(13.729858%,12.159729%,12.548828%);fill-opacity:1;" d="M 188.976562 190.679688 L 186.582031 188.277344 L 180.523438 194.339844 L 182.921875 196.742188 L 188.976562 190.679688 "/>
<path style=" stroke:none;fill-rule:nonzero;fill:rgb(13.729858%,12.159729%,12.548828%);fill-opacity:1;" d="M 142.347656 232.542969 L 144.742188 234.949219 L 150.804688 228.882812 L 148.398438 226.484375 L 142.347656 232.542969 "/>
<path style=" stroke:none;fill-rule:nonzero;fill:rgb(13.729858%,12.159729%,12.548828%);fill-opacity:1;" d="M 180.363281 228.71875 L 186.417969 234.785156 L 188.816406 232.382812 L 182.761719 226.324219 L 180.363281 228.71875 "/>
<path style=" stroke:none;fill-rule:nonzero;fill:rgb(13.729858%,12.159729%,12.548828%);fill-opacity:1;" d="M 150.640625 194.179688 L 144.582031 188.117188 L 142.183594 190.519531 L 148.238281 196.578125 L 150.640625 194.179688 "/>
<path style=" stroke:none;fill-rule:nonzero;fill:rgb(13.729858%,12.159729%,12.548828%);fill-opacity:1;" d="M 166.78125 209.292969 L 167.65625 194.386719 L 165.53125 191.453125 L 163.109375 194.386719 L 164.605469 209.433594 C 163.976562 209.835938 163.554688 210.539062 163.554688 211.339844 C 163.554688 211.804688 163.703125 212.238281 163.941406 212.597656 L 154.96875 232.699219 L 155.9375 236.1875 L 159.230469 234.289062 L 165.859375 213.597656 C 167.09375 213.582031 168.089844 212.578125 168.089844 211.339844 C 168.089844 210.429688 167.546875 209.652344 166.78125 209.292969 "/>
<path style=" stroke:none;fill-rule:nonzero;fill:rgb(0%,0%,0%);fill-opacity:1;" d="M 245.28125 185.390625 L 229.695312 185.390625 L 229.695312 173.765625 L 245.28125 173.765625 Z M 245.28125 200.988281 L 229.695312 200.988281 L 229.695312 189.363281 L 245.28125 189.363281 Z M 245.28125 216.585938 L 229.695312 216.585938 L 229.695312 204.957031 L 245.28125 204.957031 Z M 245.28125 232.179688 L 229.695312 232.179688 L 229.695312 220.554688 L 245.28125 220.554688 Z M 226.15625 185.390625 L 210.570312 185.390625 L 210.570312 173.765625 L 226.15625 173.765625 Z M 226.15625 200.988281 L 210.570312 200.988281 L 210.570312 189.363281 L 226.15625 189.363281 Z M 226.15625 216.585938 L 210.570312 216.585938 L 210.570312 204.957031 L 226.15625 204.957031 Z M 226.15625 232.179688 L 210.570312 232.179688 L 210.570312 220.554688 L 226.15625 220.554688 Z M 240.601562 136.066406 L 234.070312 136.066406 L 234.070312 128.625 C 234.070312 125.390625 231.445312 122.765625 228.210938 122.765625 C 224.976562 122.765625 222.355469 125.390625 222.355469 128.625 L 222.355469 136.066406 L 176.117188 136.066406 L 176.117188 128.625 C 176.117188 125.390625 173.496094 122.765625 170.257812 122.765625 C 167.027344 122.765625 164.402344 125.390625 164.402344 128.625 L 164.402344 136.066406 L 157.871094 136.066406 C 151.640625 136.066406 146.589844 141.121094 146.589844 147.355469 L 146.589844 172.472656 C 152.4375 169.527344 159.042969 167.867188 166.035156 167.867188 C 174 167.867188 181.457031 170.019531 187.867188 173.765625 L 187.898438 173.765625 L 187.898438 173.785156 C 189.121094 174.5 190.300781 175.273438 191.441406 176.097656 L 191.441406 173.765625 L 207.027344 173.765625 L 207.027344 185.390625 L 200.84375 185.390625 C 201.789062 186.664062 202.664062 187.988281 203.464844 189.363281 L 207.027344 189.363281 L 207.027344 197.113281 C 208.550781 201.542969 209.378906 206.292969 209.378906 211.242188 C 209.378906 216.1875 208.550781 220.9375 207.027344 225.367188 L 207.027344 232.179688 L 204 232.179688 C 202.132812 235.566406 199.824219 238.675781 197.152344 241.433594 L 240.601562 241.433594 C 246.832031 241.433594 251.882812 236.378906 251.882812 230.144531 L 251.882812 147.355469 C 251.882812 141.121094 246.832031 136.066406 240.601562 136.066406 "/>
<g clip-path="url(#clip1)" clip-rule="nonzero">
<path style=" stroke:none;fill-rule:nonzero;fill:rgb(13.729858%,12.159729%,12.548828%);fill-opacity:1;" d="M 245.28125 185.390625 L 245.28125 184.617188 L 230.472656 184.617188 L 230.472656 174.542969 L 244.507812 174.542969 L 244.507812 185.390625 L 245.28125 185.390625 L 245.28125 184.617188 L 245.28125 185.390625 L 246.058594 185.390625 L 246.058594 173.765625 C 246.058594 173.5625 245.976562 173.359375 245.832031 173.214844 C 245.6875 173.070312 245.488281 172.988281 245.28125 172.988281 L 229.695312 172.988281 C 229.492188 172.988281 229.292969 173.070312 229.148438 173.214844 C 229.003906 173.359375 228.917969 173.5625 228.917969 173.765625 L 228.917969 185.390625 C 228.917969 185.597656 229.003906 185.796875 229.148438 185.941406 C 229.292969 186.085938 229.492188 186.167969 229.695312 186.167969 L 245.28125 186.167969 C 245.488281 186.167969 245.6875 186.085938 245.832031 185.941406 C 245.976562 185.796875 246.058594 185.597656 246.058594 185.390625 Z M 245.28125 200.988281 L 245.28125 200.210938 L 230.472656 200.210938 L 230.472656 190.136719 L 244.507812 190.136719 L 244.507812 200.988281 L 245.28125 200.988281 L 245.28125 200.210938 L 245.28125 200.988281 L 246.058594 200.988281 L 246.058594 189.363281 C 246.058594 189.15625 245.976562 188.957031 245.832031 188.8125 C 245.6875 188.667969 245.488281 188.585938 245.28125 188.585938 L 229.695312 188.585938 C 229.492188 188.585938 229.292969 188.667969 229.148438 188.8125 C 229.003906 188.957031 228.921875 189.15625 228.921875 189.363281 L 228.921875 200.988281 C 228.921875 201.191406 229.003906 201.390625 229.148438 201.535156 C 229.292969 201.683594 229.492188 201.765625 229.695312 201.765625 L 245.28125 201.765625 C 245.488281 201.765625 245.683594 201.683594 245.832031 201.535156 C 245.976562 201.390625 246.058594 201.195312 246.058594 200.988281 Z M 245.28125 216.585938 L 245.28125 215.808594 L 230.472656 215.808594 L 230.472656 205.734375 L 244.507812 205.734375 L 244.507812 216.585938 L 245.28125 216.585938 L 245.28125 215.808594 L 245.28125 216.585938 L 246.058594 216.585938 L 246.058594 204.957031 C 246.058594 204.753906 245.976562 204.554688 245.832031 204.410156 C 245.6875 204.265625 245.488281 204.179688 245.28125 204.179688 L 229.695312 204.179688 C 229.492188 204.179688 229.292969 204.265625 229.148438 204.410156 C 229.003906 204.554688 228.921875 204.753906 228.921875 204.957031 L 228.921875 216.585938 C 228.921875 216.789062 229.003906 216.988281 229.148438 217.132812 C 229.292969 217.277344 229.492188 217.363281 229.695312 217.363281 L 245.28125 217.363281 C 245.488281 217.363281 245.683594 217.28125 245.832031 217.132812 C 245.976562 216.988281 246.058594 216.792969 246.058594 216.585938 Z M 245.28125 232.179688 L 245.28125 231.402344 L 230.472656 231.402344 L 230.472656 221.328125 L 244.507812 221.328125 L 244.507812 232.179688 L 245.28125 232.179688 L 245.28125 231.402344 L 245.28125 232.179688 L 246.058594 232.179688 L 246.058594 220.554688 C 246.058594 220.347656 245.976562 220.148438 245.832031 220.003906 C 245.6875 219.859375 245.488281 219.777344 245.28125 219.777344 L 229.695312 219.777344 C 229.492188 219.777344 229.292969 219.859375 229.148438 220.003906 C 229.003906 220.148438 228.917969 220.347656 228.917969 220.554688 L 228.917969 232.179688 C 228.917969 232.386719 229.003906 232.585938 229.148438 232.730469 C 229.292969 232.875 229.492188 232.957031 229.695312 232.957031 L 245.28125 232.957031 C 245.488281 232.957031 245.6875 232.875 245.832031 232.730469 C 245.976562 232.585938 246.058594 232.386719 246.058594 232.179688 Z M 226.15625 185.390625 L 226.15625 184.617188 L 211.347656 184.617188 L 211.347656 174.542969 L 225.378906 174.542969 L 225.378906 185.390625 L 226.15625 185.390625 L 226.15625 184.617188 L 226.15625 185.390625 L 226.929688 185.390625 L 226.929688 173.765625 C 226.929688 173.5625 226.847656 173.359375 226.703125 173.214844 C 226.558594 173.070312 226.359375 172.988281 226.15625 172.988281 L 210.570312 172.988281 C 210.367188 172.988281 210.164062 173.070312 210.019531 173.214844 C 209.878906 173.359375 209.792969 173.5625 209.792969 173.765625 L 209.792969 185.390625 C 209.792969 185.597656 209.878906 185.796875 210.019531 185.941406 C 210.164062 186.085938 210.367188 186.167969 210.570312 186.167969 L 226.15625 186.167969 C 226.359375 186.167969 226.558594 186.085938 226.703125 185.941406 C 226.847656 185.796875 226.929688 185.597656 226.929688 185.390625 Z M 226.15625 200.988281 L 226.15625 200.210938 L 211.347656 200.210938 L 211.347656 190.136719 L 225.378906 190.136719 L 225.378906 200.988281 L 226.15625 200.988281 L 226.15625 200.210938 L 226.15625 200.988281 L 226.929688 200.988281 L 226.929688 189.363281 C 226.929688 189.15625 226.847656 188.957031 226.703125 188.8125 C 226.558594 188.667969 226.359375 188.585938 226.15625 188.585938 L 210.570312 188.585938 C 210.367188 188.585938 210.164062 188.667969 210.019531 188.8125 C 209.875 188.957031 209.792969 189.15625 209.792969 189.363281 L 209.792969 200.988281 C 209.792969 201.191406 209.875 201.390625 210.019531 201.535156 C 210.164062 201.683594 210.367188 201.765625 210.570312 201.765625 L 226.15625 201.765625 C 226.363281 201.765625 226.558594 201.683594 226.703125 201.535156 C 226.851562 201.390625 226.929688 201.195312 226.929688 200.988281 Z M 226.15625 216.585938 L 226.15625 215.808594 L 211.347656 215.808594 L 211.347656 205.734375 L 225.378906 205.734375 L 225.378906 216.585938 L 226.15625 216.585938 L 226.15625 215.808594 L 226.15625 216.585938 L 226.929688 216.585938 L 226.929688 204.957031 C 226.929688 204.753906 226.847656 204.554688 226.703125 204.410156 C 226.558594 204.265625 226.359375 204.179688 226.15625 204.179688 L 210.570312 204.179688 C 210.367188 204.179688 210.164062 204.265625 210.019531 204.410156 C 209.875 204.554688 209.792969 204.753906 209.792969 204.957031 L 209.792969 216.585938 C 209.792969 216.789062 209.875 216.988281 210.019531 217.132812 C 210.164062 217.277344 210.367188 217.363281 210.570312 217.363281 L 226.15625 217.363281 C 226.363281 217.363281 226.558594 217.28125 226.703125 217.132812 C 226.851562 216.988281 226.929688 216.792969 226.929688 216.585938 Z M 226.15625 232.179688 L 226.15625 231.402344 L 211.347656 231.402344 L 211.347656 221.328125 L 225.378906 221.328125 L 225.378906 232.179688 L 226.15625 232.179688 L 226.15625 231.402344 L 226.15625 232.179688 L 226.929688 232.179688 L 226.929688 220.554688 C 226.929688 220.347656 226.847656 220.148438 226.703125 220.003906 C 226.558594 219.859375 226.359375 219.777344 226.15625 219.777344 L 210.570312 219.777344 C 210.367188 219.777344 210.164062 219.859375 210.019531 220.003906 C 209.878906 220.148438 209.792969 220.347656 209.792969 220.554688 L 209.792969 232.179688 C 209.792969 232.386719 209.878906 232.585938 210.019531 232.730469 C 210.164062 232.875 210.367188 232.957031 210.570312 232.957031 L 226.15625 232.957031 C 226.359375 232.957031 226.558594 232.875 226.703125 232.730469 C 226.847656 232.585938 226.929688 232.386719 226.929688 232.179688 Z M 240.601562 136.066406 L 240.601562 135.289062 L 234.847656 135.289062 L 234.847656 128.625 C 234.847656 124.960938 231.875 121.988281 228.210938 121.988281 C 224.546875 121.988281 221.578125 124.960938 221.578125 128.625 L 221.578125 135.289062 L 176.894531 135.289062 L 176.894531 128.625 C 176.890625 124.960938 173.925781 121.988281 170.257812 121.988281 C 166.59375 121.988281 163.625 124.960938 163.625 128.625 L 163.625 135.289062 L 157.871094 135.289062 C 151.210938 135.289062 145.8125 140.691406 145.8125 147.355469 L 145.8125 172.472656 C 145.8125 172.742188 145.953125 172.988281 146.179688 173.132812 C 146.410156 173.273438 146.695312 173.285156 146.9375 173.164062 C 152.683594 170.273438 159.167969 168.644531 166.035156 168.644531 C 173.859375 168.644531 181.179688 170.753906 187.476562 174.4375 C 187.59375 174.503906 187.734375 174.542969 187.867188 174.542969 L 187.898438 174.542969 L 187.898438 173.765625 L 187.125 173.765625 L 187.125 173.785156 C 187.125 174.058594 187.269531 174.316406 187.507812 174.457031 C 188.707031 175.15625 189.867188 175.914062 190.988281 176.726562 C 191.222656 176.898438 191.535156 176.925781 191.796875 176.789062 C 192.054688 176.65625 192.21875 176.390625 192.21875 176.097656 L 192.21875 174.542969 L 206.25 174.542969 L 206.25 184.617188 L 200.84375 184.617188 C 200.550781 184.617188 200.28125 184.78125 200.152344 185.042969 C 200.019531 185.304688 200.046875 185.621094 200.222656 185.855469 C 201.148438 187.105469 202.007812 188.40625 202.796875 189.753906 C 202.9375 189.992188 203.191406 190.136719 203.464844 190.136719 L 206.25 190.136719 L 206.25 197.113281 C 206.25 197.203125 206.265625 197.285156 206.292969 197.367188 C 207.789062 201.71875 208.601562 206.382812 208.601562 211.242188 C 208.601562 216.097656 207.789062 220.765625 206.292969 225.113281 C 206.265625 225.195312 206.25 225.28125 206.25 225.367188 L 206.25 231.402344 L 204 231.402344 C 203.71875 231.402344 203.457031 231.558594 203.324219 231.804688 C 201.484375 235.132812 199.21875 238.183594 196.59375 240.890625 C 196.378906 241.117188 196.316406 241.449219 196.4375 241.734375 C 196.558594 242.023438 196.839844 242.210938 197.152344 242.210938 L 240.601562 242.210938 C 247.261719 242.210938 252.660156 236.808594 252.660156 230.144531 L 252.660156 147.355469 C 252.660156 140.691406 247.261719 135.289062 240.601562 135.289062 L 240.601562 136.84375 C 243.503906 136.84375 246.125 138.019531 248.03125 139.921875 C 249.933594 141.828125 251.105469 144.449219 251.105469 147.355469 L 251.105469 230.144531 C 251.105469 233.050781 249.933594 235.671875 248.03125 237.578125 C 246.125 239.480469 243.503906 240.65625 240.601562 240.65625 L 197.152344 240.65625 L 197.152344 241.433594 L 197.710938 241.972656 C 200.429688 239.167969 202.777344 236.003906 204.679688 232.554688 L 204 232.179688 L 204 232.957031 L 207.027344 232.957031 C 207.230469 232.957031 207.429688 232.875 207.578125 232.730469 C 207.722656 232.585938 207.804688 232.386719 207.804688 232.179688 L 207.804688 225.367188 L 207.027344 225.367188 L 207.761719 225.617188 C 209.3125 221.113281 210.15625 216.273438 210.15625 211.242188 C 210.15625 206.207031 209.3125 201.371094 207.761719 196.863281 L 207.027344 197.113281 L 207.804688 197.113281 L 207.804688 189.363281 C 207.804688 189.15625 207.722656 188.957031 207.578125 188.8125 C 207.429688 188.667969 207.230469 188.585938 207.027344 188.585938 L 203.464844 188.585938 L 203.464844 189.363281 L 204.136719 188.96875 C 203.320312 187.574219 202.429688 186.222656 201.46875 184.929688 L 200.84375 185.390625 L 200.84375 186.167969 L 207.027344 186.167969 C 207.230469 186.167969 207.429688 186.085938 207.578125 185.941406 C 207.722656 185.796875 207.804688 185.597656 207.804688 185.390625 L 207.804688 173.765625 C 207.804688 173.5625 207.722656 173.359375 207.578125 173.214844 C 207.429688 173.070312 207.230469 172.988281 207.027344 172.988281 L 191.441406 172.988281 C 191.238281 172.988281 191.039062 173.070312 190.894531 173.214844 C 190.75 173.359375 190.667969 173.5625 190.667969 173.765625 L 190.667969 176.097656 L 191.441406 176.097656 L 191.898438 175.46875 C 190.738281 174.628906 189.535156 173.839844 188.292969 173.113281 L 187.898438 173.785156 L 188.675781 173.785156 L 188.675781 173.765625 C 188.675781 173.558594 188.59375 173.363281 188.449219 173.214844 C 188.304688 173.070312 188.105469 172.988281 187.898438 172.988281 L 187.867188 172.988281 L 187.867188 173.765625 L 188.261719 173.09375 C 181.734375 169.277344 174.136719 167.089844 166.035156 167.089844 C 158.917969 167.089844 152.195312 168.78125 146.238281 171.777344 L 146.589844 172.472656 L 147.363281 172.472656 L 147.363281 147.355469 C 147.363281 144.449219 148.539062 141.828125 150.441406 139.921875 C 152.34375 138.019531 154.96875 136.84375 157.871094 136.84375 L 164.402344 136.84375 C 164.605469 136.84375 164.804688 136.761719 164.949219 136.613281 C 165.09375 136.46875 165.175781 136.269531 165.175781 136.066406 L 165.175781 128.625 C 165.179688 127.21875 165.746094 125.953125 166.667969 125.03125 C 167.589844 124.109375 168.855469 123.542969 170.257812 123.542969 C 171.664062 123.542969 172.929688 124.109375 173.851562 125.03125 C 174.773438 125.953125 175.339844 127.21875 175.339844 128.625 L 175.339844 136.066406 C 175.339844 136.269531 175.421875 136.46875 175.566406 136.613281 C 175.710938 136.761719 175.914062 136.84375 176.117188 136.84375 L 222.355469 136.84375 C 222.558594 136.84375 222.757812 136.761719 222.902344 136.613281 C 223.046875 136.46875 223.128906 136.269531 223.128906 136.066406 L 223.128906 128.625 C 223.128906 127.21875 223.699219 125.953125 224.617188 125.03125 C 225.539062 124.109375 226.804688 123.542969 228.210938 123.542969 C 229.617188 123.542969 230.882812 124.109375 231.804688 125.03125 C 232.726562 125.953125 233.292969 127.21875 233.292969 128.625 L 233.292969 136.066406 C 233.292969 136.269531 233.378906 136.46875 233.519531 136.613281 C 233.664062 136.761719 233.863281 136.84375 234.070312 136.84375 L 240.601562 136.84375 L 240.601562 136.066406 "/>
</g>
</g>
</svg>
