<?xml version="1.0" encoding="UTF-8"?>
<svg xmlns="http://www.w3.org/2000/svg" xmlns:xlink="http://www.w3.org/1999/xlink" width="375pt" height="374.999991pt" viewBox="0 0 375 374.999991" version="1.2">
<defs>
<clipPath id="clip1">
  <path d="M 79.582031 102.410156 L 146 102.410156 L 146 251 L 79.582031 251 Z M 79.582031 102.410156 "/>
</clipPath>
<clipPath id="clip2">
  <path d="M 118 144 L 275.261719 144 L 275.261719 236 L 118 236 Z M 118 144 "/>
</clipPath>
</defs>
<g id="surface1">
<rect x="0" y="0" width="375" height="374.999991" style="fill:rgb(100%,100%,100%);fill-opacity:1;stroke:none;"/>
<rect x="0" y="0" width="375" height="374.999991" style="fill:rgb(100%,100%,100%);fill-opacity:1;stroke:none;"/>
<rect x="0" y="0" width="375" height="374.999991" style="fill:rgb(100%,100%,100%);fill-opacity:1;stroke:none;"/>
<g clip-path="url(#clip1)" clip-rule="nonzero">
<path style=" stroke:none;fill-rule:nonzero;fill:rgb(0%,0%,0%);fill-opacity:1;" d="M 104.042969 109.777344 L 139.132812 250.230469 L 145.902344 248.519531 L 110.195312 105.441406 C 109.792969 103.875 108.410156 102.78125 106.808594 102.78125 L 83.078125 102.78125 C 81.148438 102.78125 79.582031 104.347656 79.582031 106.277344 C 79.582031 108.207031 81.148438 109.777344 83.078125 109.777344 Z M 104.042969 109.777344 "/>
</g>
<path style=" stroke:none;fill-rule:nonzero;fill:rgb(0%,0%,0%);fill-opacity:1;" d="M 163.445312 260.175781 C 163.445312 269.832031 155.621094 277.664062 145.976562 277.664062 C 136.328125 277.664062 128.503906 269.832031 128.503906 260.175781 C 128.503906 250.523438 136.328125 242.6875 145.976562 242.6875 C 155.621094 242.6875 163.445312 250.523438 163.445312 260.175781 Z M 135.492188 260.175781 C 135.492188 265.96875 140.1875 270.671875 145.976562 270.671875 C 151.761719 270.671875 156.457031 265.96875 156.457031 260.175781 C 156.457031 254.382812 151.761719 249.683594 145.976562 249.683594 C 140.1875 249.683594 135.492188 254.382812 135.492188 260.175781 Z M 135.492188 260.175781 "/>
<path style=" stroke:none;fill-rule:nonzero;fill:rgb(0%,0%,0%);fill-opacity:1;" d="M 261.285156 260.175781 C 261.285156 269.832031 253.460938 277.664062 243.816406 277.664062 C 234.167969 277.664062 226.34375 269.832031 226.34375 260.175781 C 226.34375 250.523438 234.167969 242.6875 243.816406 242.6875 C 253.460938 242.6875 261.285156 250.523438 261.285156 260.175781 Z M 233.332031 260.175781 C 233.332031 265.96875 238.027344 270.671875 243.816406 270.671875 C 249.601562 270.671875 254.296875 265.96875 254.296875 260.175781 C 254.296875 254.382812 249.601562 249.683594 243.816406 249.683594 C 238.027344 249.683594 233.332031 254.382812 233.332031 260.175781 Z M 233.332031 260.175781 "/>
<g clip-path="url(#clip2)" clip-rule="nonzero">
<path style=" stroke:none;fill-rule:nonzero;fill:rgb(0%,0%,0%);fill-opacity:1;" d="M 267.292969 151.75 L 248.074219 228.699219 L 138.988281 228.699219 L 138.988281 235.695312 L 250.804688 235.695312 C 252.40625 235.695312 253.789062 234.601562 254.1875 233.035156 L 275.15625 149.089844 C 275.699219 146.902344 274.027344 144.753906 271.769531 144.753906 L 118.019531 144.753906 L 118.019531 151.75 Z M 267.292969 151.75 "/>
</g>
<path style=" stroke:none;fill-rule:nonzero;fill:rgb(0%,0%,0%);fill-opacity:1;" d="M 159.953125 263.675781 L 229.839844 263.675781 L 229.839844 256.679688 L 159.953125 256.679688 Z M 159.953125 263.675781 "/>
</g>
</svg>
