<?xml version="1.0" encoding="UTF-8"?>
<svg xmlns="http://www.w3.org/2000/svg" xmlns:xlink="http://www.w3.org/1999/xlink" width="375pt" height="374.999991pt" viewBox="0 0 375 374.999991" version="1.2">
<defs>
<clipPath id="clip1">
  <path d="M 236 160 L 240.46875 160 L 240.46875 173 L 236 173 Z M 236 160 "/>
</clipPath>
<clipPath id="clip2">
  <path d="M 206 129.597656 L 218 129.597656 L 218 134 L 206 134 Z M 206 129.597656 "/>
</clipPath>
<clipPath id="clip3">
  <path d="M 126.46875 162 L 131 162 L 131 174 L 126.46875 174 Z M 126.46875 162 "/>
</clipPath>
<clipPath id="clip4">
  <path d="M 148 129.597656 L 161 129.597656 L 161 134 L 148 134 Z M 148 129.597656 "/>
</clipPath>
<clipPath id="clip5">
  <path d="M 137 141 L 230 141 L 230 237.585938 L 137 237.585938 Z M 137 141 "/>
</clipPath>
</defs>
<g id="surface1">
<rect x="0" y="0" width="375" height="374.999991" style="fill:rgb(100%,100%,100%);fill-opacity:1;stroke:none;"/>
<rect x="0" y="0" width="375" height="374.999991" style="fill:rgb(100%,100%,100%);fill-opacity:1;stroke:none;"/>
<g clip-path="url(#clip1)" clip-rule="nonzero">
<path style=" stroke:none;fill-rule:nonzero;fill:rgb(0%,0%,0%);fill-opacity:1;" d="M 240.628906 162.652344 C 240.617188 161.722656 239.859375 160.976562 238.929688 160.976562 C 238.921875 160.976562 238.917969 160.976562 238.910156 160.976562 C 238.898438 160.976562 238.886719 160.980469 238.875 160.980469 C 237.953125 161.011719 237.222656 161.765625 237.230469 162.6875 C 237.234375 162.804688 237.234375 162.921875 237.234375 163.039062 C 237.234375 165.515625 236.976562 168.042969 236.46875 170.558594 C 236.285156 171.460938 236.863281 172.339844 237.761719 172.539062 C 237.773438 172.542969 237.785156 172.550781 237.796875 172.550781 C 238.726562 172.738281 239.613281 172.136719 239.800781 171.226562 C 240.351562 168.492188 240.628906 165.738281 240.628906 163.042969 C 240.628906 162.914062 240.628906 162.78125 240.628906 162.652344 Z M 240.628906 162.652344 "/>
</g>
<path style=" stroke:none;fill-rule:nonzero;fill:rgb(0%,0%,0%);fill-opacity:1;" d="M 191.179688 137.964844 C 191.710938 138.722656 192.746094 138.910156 193.507812 138.402344 C 195.726562 136.929688 198.089844 135.738281 200.53125 134.863281 C 201.398438 134.554688 201.851562 133.613281 201.566406 132.742188 C 201.5625 132.730469 201.5625 132.714844 201.554688 132.699219 C 201.238281 131.816406 200.265625 131.363281 199.382812 131.675781 C 196.683594 132.644531 194.070312 133.957031 191.625 135.585938 C 190.84375 136.105469 190.632812 137.15625 191.152344 137.933594 C 191.160156 137.945312 191.171875 137.953125 191.179688 137.964844 Z M 191.179688 137.964844 "/>
<path style=" stroke:none;fill-rule:nonzero;fill:rgb(0%,0%,0%);fill-opacity:1;" d="M 231.597656 141.152344 C 232.289062 140.523438 232.339844 139.453125 231.707031 138.761719 C 229.683594 136.546875 227.386719 134.691406 224.878906 133.246094 C 224.066406 132.777344 223.03125 133.054688 222.5625 133.867188 C 222.550781 133.882812 222.546875 133.902344 222.539062 133.917969 C 222.109375 134.71875 222.386719 135.722656 223.183594 136.179688 C 225.386719 137.449219 227.410156 139.082031 229.195312 141.039062 C 229.816406 141.71875 230.863281 141.773438 231.554688 141.183594 C 231.566406 141.171875 231.582031 141.164062 231.597656 141.152344 Z M 231.597656 141.152344 "/>
<g clip-path="url(#clip2)" clip-rule="nonzero">
<path style=" stroke:none;fill-rule:nonzero;fill:rgb(0%,0%,0%);fill-opacity:1;" d="M 208.195312 133.171875 C 209.195312 133.078125 210.222656 133.03125 211.238281 133.03125 C 211.242188 133.03125 211.242188 133.03125 211.246094 133.03125 C 212.851562 133.03125 214.441406 133.183594 215.972656 133.480469 C 216.867188 133.65625 217.742188 133.089844 217.949219 132.203125 C 217.953125 132.183594 217.960938 132.164062 217.964844 132.144531 C 218.144531 131.230469 217.546875 130.339844 216.625 130.160156 C 214.878906 129.816406 213.070312 129.644531 211.246094 129.644531 C 211.242188 129.644531 211.242188 129.644531 211.238281 129.644531 C 210.113281 129.644531 208.984375 129.695312 207.882812 129.796875 C 206.945312 129.886719 206.261719 130.710938 206.347656 131.640625 C 206.347656 131.65625 206.355469 131.667969 206.355469 131.683594 C 206.464844 132.59375 207.277344 133.253906 208.195312 133.171875 Z M 208.195312 133.171875 "/>
</g>
<path style=" stroke:none;fill-rule:nonzero;fill:rgb(0%,0%,0%);fill-opacity:1;" d="M 236.378906 177.230469 C 236.371094 177.226562 236.359375 177.226562 236.347656 177.222656 C 235.484375 176.898438 234.515625 177.316406 234.171875 178.175781 C 233.210938 180.570312 232.015625 182.984375 230.613281 185.355469 C 230.140625 186.152344 230.402344 187.179688 231.191406 187.660156 C 231.199219 187.664062 231.207031 187.667969 231.214844 187.675781 C 232.015625 188.148438 233.058594 187.886719 233.539062 187.074219 C 235.027344 184.554688 236.300781 181.984375 237.324219 179.433594 C 237.671875 178.566406 237.25 177.578125 236.378906 177.230469 Z M 236.378906 177.230469 "/>
<path style=" stroke:none;fill-rule:nonzero;fill:rgb(0%,0%,0%);fill-opacity:1;" d="M 236.296875 154.855469 C 236.550781 155.9375 237.476562 156.292969 238.296875 156.121094 C 239.140625 155.941406 239.863281 155.195312 239.601562 154.082031 C 238.929688 151.21875 237.9375 148.480469 236.644531 145.941406 C 236.222656 145.105469 235.199219 144.773438 234.363281 145.195312 C 234.347656 145.203125 234.335938 145.210938 234.324219 145.21875 C 233.519531 145.65625 233.199219 146.652344 233.617188 147.472656 C 234.785156 149.769531 235.6875 152.253906 236.296875 154.855469 Z M 236.296875 154.855469 "/>
<g clip-path="url(#clip3)" clip-rule="nonzero">
<path style=" stroke:none;fill-rule:nonzero;fill:rgb(0%,0%,0%);fill-opacity:1;" d="M 130.902344 171.726562 C 130.285156 169.066406 129.945312 166.386719 129.894531 163.765625 C 129.875 162.84375 129.121094 162.109375 128.199219 162.105469 C 128.199219 162.105469 128.195312 162.105469 128.195312 162.105469 C 128.183594 162.105469 128.171875 162.105469 128.160156 162.105469 C 127.222656 162.125 126.476562 162.898438 126.496094 163.832031 C 126.554688 166.691406 126.921875 169.605469 127.59375 172.492188 C 127.808594 173.40625 128.722656 173.96875 129.632812 173.761719 C 129.644531 173.757812 129.652344 173.75 129.664062 173.75 C 130.558594 173.523438 131.113281 172.628906 130.902344 171.726562 Z M 130.902344 171.726562 "/>
</g>
<path style=" stroke:none;fill-rule:nonzero;fill:rgb(0%,0%,0%);fill-opacity:1;" d="M 137.257812 186.589844 C 135.773438 184.214844 134.496094 181.792969 133.453125 179.394531 C 133.085938 178.546875 132.105469 178.152344 131.25 178.503906 C 131.242188 178.507812 131.230469 178.507812 131.222656 178.511719 C 130.363281 178.882812 129.964844 179.878906 130.335938 180.738281 C 131.445312 183.292969 132.800781 185.863281 134.375 188.378906 C 134.871094 189.175781 135.917969 189.417969 136.710938 188.921875 C 136.71875 188.917969 136.726562 188.914062 136.734375 188.90625 C 137.511719 188.40625 137.746094 187.375 137.257812 186.589844 Z M 137.257812 186.589844 "/>
<path style=" stroke:none;fill-rule:nonzero;fill:rgb(0%,0%,0%);fill-opacity:1;" d="M 166.324219 134.769531 C 168.808594 135.632812 171.210938 136.824219 173.46875 138.308594 C 174.246094 138.820312 175.273438 138.609375 175.796875 137.859375 C 175.804688 137.851562 175.8125 137.839844 175.820312 137.828125 C 176.339844 137.046875 176.121094 136 175.339844 135.484375 C 172.847656 133.84375 170.191406 132.527344 167.441406 131.574219 C 166.554688 131.265625 165.585938 131.730469 165.277344 132.613281 C 165.273438 132.628906 165.273438 132.644531 165.269531 132.65625 C 164.988281 133.527344 165.449219 134.46875 166.324219 134.769531 Z M 166.324219 134.769531 "/>
<path style=" stroke:none;fill-rule:nonzero;fill:rgb(0%,0%,0%);fill-opacity:1;" d="M 135.082031 141.789062 C 135.792969 142.363281 136.835938 142.277344 137.4375 141.585938 C 139.199219 139.546875 141.210938 137.832031 143.410156 136.492188 C 144.195312 136.011719 144.449219 135.003906 143.996094 134.214844 C 143.988281 134.195312 143.984375 134.179688 143.972656 134.164062 C 143.484375 133.367188 142.4375 133.113281 141.636719 133.601562 C 139.136719 135.128906 136.859375 137.070312 134.867188 139.371094 C 134.253906 140.078125 134.332031 141.148438 135.042969 141.761719 C 135.054688 141.769531 135.070312 141.777344 135.082031 141.789062 Z M 135.082031 141.789062 "/>
<path style=" stroke:none;fill-rule:nonzero;fill:rgb(0%,0%,0%);fill-opacity:1;" d="M 128.609375 157.113281 C 128.625 157.117188 128.636719 157.117188 128.652344 157.117188 C 129.550781 157.28125 130.429688 156.703125 130.617188 155.796875 C 131.160156 153.140625 132.007812 150.597656 133.128906 148.230469 C 133.523438 147.398438 133.179688 146.410156 132.359375 146 C 132.347656 145.992188 132.335938 145.980469 132.320312 145.976562 C 131.472656 145.574219 130.460938 145.9375 130.058594 146.78125 C 128.820312 149.394531 127.886719 152.199219 127.289062 155.117188 C 127.101562 156.03125 127.691406 156.925781 128.609375 157.113281 Z M 128.609375 157.113281 "/>
<g clip-path="url(#clip4)" clip-rule="nonzero">
<path style=" stroke:none;fill-rule:nonzero;fill:rgb(0%,0%,0%);fill-opacity:1;" d="M 148.652344 132.34375 C 148.847656 133.105469 149.53125 133.621094 150.292969 133.621094 C 150.867188 133.621094 152.492188 133.03125 155.875 133.03125 C 156.761719 133.03125 157.65625 133.066406 158.527344 133.136719 C 159.453125 133.210938 160.25 132.539062 160.351562 131.628906 C 160.351562 131.613281 160.355469 131.601562 160.359375 131.585938 C 160.433594 130.652344 159.738281 129.835938 158.800781 129.761719 C 157.839844 129.683594 156.851562 129.644531 155.871094 129.644531 C 153.855469 129.644531 151.855469 129.855469 149.933594 130.273438 C 149.015625 130.472656 148.4375 131.375 148.636719 132.289062 C 148.640625 132.308594 148.648438 132.324219 148.652344 132.34375 Z M 148.652344 132.34375 "/>
</g>
<g clip-path="url(#clip5)" clip-rule="nonzero">
<path style=" stroke:none;fill-rule:nonzero;fill:rgb(0%,0%,0%);fill-opacity:1;" d="M 229.941406 197.457031 C 229.941406 195.257812 229.019531 193.667969 227.691406 192.683594 C 226.183594 191.566406 224.152344 191.226562 222.324219 191.664062 C 224.808594 182.402344 223.890625 172.671875 219.65625 163.957031 C 214.988281 154.34375 206.84375 147.117188 196.722656 143.613281 C 193.507812 142.5 190.25 141.820312 187.015625 141.539062 C 184.691406 141.335938 182.378906 141.339844 180.101562 141.535156 C 164.796875 142.867188 151.007812 152.964844 145.679688 168.265625 C 142.953125 176.09375 142.816406 184.207031 144.820312 191.664062 C 142.984375 191.222656 140.941406 191.566406 139.429688 192.691406 C 138.101562 193.675781 137.1875 195.265625 137.1875 197.457031 C 137.207031 211.386719 137.144531 211.703125 137.226562 212.332031 C 137.0625 214.414062 137.988281 216.441406 139.683594 217.675781 C 142.835938 220.011719 147.210938 222.546875 162.445312 232.636719 L 162.445312 235.878906 C 162.445312 236.816406 163.207031 237.574219 164.144531 237.574219 L 179.328125 237.574219 C 180.265625 237.574219 181.027344 236.816406 181.027344 235.878906 L 181.027344 224.097656 C 181.066406 223.160156 181.027344 222.222656 180.90625 221.296875 C 182.6875 221.417969 184.460938 221.417969 186.214844 221.300781 C 186.101562 222.21875 186.0625 223.15625 186.101562 224.097656 L 186.101562 235.878906 C 186.101562 236.816406 186.859375 237.574219 187.800781 237.574219 L 202.980469 237.574219 C 203.921875 237.574219 204.679688 236.816406 204.679688 235.878906 L 204.679688 232.636719 C 213.429688 226.859375 227.421875 217.695312 227.441406 217.675781 C 229.136719 216.441406 230.066406 214.414062 229.898438 212.332031 C 229.984375 211.703125 229.917969 211.382812 229.941406 197.457031 Z M 149.617188 202.632812 C 149.617188 202.632812 149.070312 202.933594 148.40625 203.777344 L 148.40625 200.222656 C 148.40625 200.222656 149.253906 202.03125 149.617188 202.632812 Z M 177.632812 223.960938 C 177.628906 223.992188 177.628906 224.023438 177.628906 224.058594 L 177.628906 234.1875 L 165.84375 234.1875 L 165.84375 231.726562 C 165.84375 231.160156 165.558594 230.628906 165.082031 230.316406 C 156.617188 224.722656 142.515625 215.480469 141.65625 214.917969 C 140.308594 213.90625 140.605469 214.175781 140.582031 197.457031 C 140.582031 196 141.769531 194.8125 143.230469 194.8125 C 144.691406 194.8125 145.878906 196 145.878906 197.457031 L 145.878906 209.027344 C 145.878906 209.476562 146.058594 209.910156 146.378906 210.226562 C 147.136719 210.980469 152.074219 214.386719 154.925781 216.332031 L 158.894531 219.179688 C 159.660156 219.726562 160.71875 219.550781 161.265625 218.792969 C 161.8125 218.035156 161.640625 216.976562 160.878906 216.429688 L 151.398438 209.628906 C 150.390625 208.589844 150.34375 206.320312 151.320312 205.28125 C 152.324219 204.210938 154.347656 203.832031 155.394531 204.808594 C 155.589844 204.992188 155.007812 204.574219 165.980469 211.816406 C 166.253906 212.046875 166.59375 212.195312 166.976562 212.21875 C 178.066406 212.863281 177.65625 223.511719 177.632812 223.960938 Z M 187.019531 217.929688 C 184.757812 218.136719 182.4375 218.128906 180.078125 217.882812 C 179.585938 216.542969 178.898438 215.277344 178.019531 214.144531 C 179.019531 213.019531 179.742188 211.8125 179.875 210.472656 C 180.296875 206.292969 177.664062 204.9375 175.742188 203.949219 C 174.726562 203.429688 173.765625 202.933594 173.167969 202.085938 C 172.175781 200.683594 172.4375 199.996094 173.015625 198.492188 C 175.75 191.367188 170.953125 184.886719 166.074219 184.851562 C 162.550781 184.851562 161.753906 188.09375 159.871094 187.492188 C 156.988281 186.574219 160.605469 181.441406 157.148438 177.648438 C 154.960938 175.246094 150.835938 174.683594 147.351562 175.371094 C 147.691406 173.363281 148.195312 171.359375 148.886719 169.378906 C 153.527344 156.058594 165.207031 146.996094 178.457031 145.128906 C 178.972656 147.824219 181.800781 149.367188 183.964844 150.550781 C 187.796875 152.636719 188.8125 153.503906 185.347656 155.714844 C 183.65625 156.796875 180.824219 158.605469 182.269531 162.617188 C 183.667969 166.5 189.496094 168.957031 192.65625 166.316406 C 192.34375 168.742188 185.152344 173.792969 187.121094 178.886719 C 188.378906 182.136719 192.40625 181.6875 196.472656 185.09375 C 198.726562 186.980469 202.128906 189.828125 205.882812 186.742188 C 209.261719 183.964844 208.136719 180.203125 207.3125 177.457031 C 206.917969 176.140625 206.472656 174.652344 206.816406 174.089844 C 207.636719 172.738281 208.453125 172.777344 209.070312 172.964844 C 210.933594 173.527344 212.882812 176.289062 212.796875 178.246094 C 212.664062 181.359375 210.230469 186.890625 214.929688 190.464844 C 216.234375 191.457031 217.476562 192.019531 218.65625 192.167969 C 217.664062 195.28125 216.253906 198.238281 214.5 200.964844 C 212.746094 200.660156 210.894531 201.03125 209.527344 202.234375 L 199.457031 208.878906 C 192.90625 209.429688 188.757812 213.152344 187.019531 217.929688 Z M 219.070312 199.714844 L 219.070312 203.269531 C 218.40625 202.425781 217.863281 202.125 217.863281 202.125 C 218.226562 201.523438 219.070312 199.714844 219.070312 199.714844 Z M 225.46875 214.921875 C 224.613281 215.480469 210.507812 224.722656 202.042969 230.316406 C 201.570312 230.628906 201.285156 231.160156 201.285156 231.726562 L 201.285156 234.1875 L 189.496094 234.1875 L 189.496094 224.058594 C 189.496094 224.027344 189.496094 223.996094 189.492188 223.960938 C 189.46875 223.511719 188.992188 212.867188 200.148438 212.21875 C 200.421875 212.203125 200.671875 212.117188 200.894531 211.992188 C 200.898438 211.992188 200.898438 211.992188 200.902344 211.992188 C 211.914062 205.0625 211.9375 204.085938 213.671875 204.265625 C 216.984375 204.605469 217.023438 208.292969 215.726562 209.628906 L 206.246094 216.429688 C 205.484375 216.976562 205.3125 218.035156 205.859375 218.792969 C 206.40625 219.546875 207.464844 219.726562 208.230469 219.179688 L 212.199219 216.332031 C 215.050781 214.386719 219.992188 210.980469 220.75 210.226562 C 221.066406 209.910156 221.246094 209.476562 221.246094 209.027344 L 221.246094 197.457031 C 221.246094 196 222.433594 194.8125 223.894531 194.8125 C 225.355469 194.8125 226.546875 196 226.546875 197.453125 C 226.535156 203.574219 226.503906 210.46875 226.503906 212.492188 C 226.617188 213.429688 226.21875 214.355469 225.46875 214.921875 Z M 225.46875 214.921875 "/>
</g>
</g>
</svg>
