<?xml version="1.0" encoding="UTF-8"?>
<svg xmlns="http://www.w3.org/2000/svg" xmlns:xlink="http://www.w3.org/1999/xlink" width="375pt" height="374.999991pt" viewBox="0 0 375 374.999991" version="1.2">
<defs>
<clipPath id="clip1">
  <path d="M 115 95 L 261 95 L 261 299.628906 L 115 299.628906 Z M 115 95 "/>
</clipPath>
</defs>
<g id="surface1">
<rect x="0" y="0" width="375" height="374.999991" style="fill:rgb(100%,100%,100%);fill-opacity:1;stroke:none;"/>
<rect x="0" y="0" width="375" height="374.999991" style="fill:rgb(100%,100%,100%);fill-opacity:1;stroke:none;"/>
<rect x="0" y="0" width="375" height="374.999991" style="fill:rgb(0%,0%,0%);fill-opacity:1;stroke:none;"/>
<g clip-path="url(#clip1)" clip-rule="nonzero">
<path style=" stroke:none;fill-rule:nonzero;fill:rgb(100%,100%,100%);fill-opacity:1;" d="M 172.855469 95.230469 C 167 95.292969 161.347656 98.300781 158.097656 103.671875 L 156.96875 105.542969 C 155.359375 108.195312 152.550781 109.808594 149.453125 109.867188 L 147.277344 109.917969 C 137.863281 110.113281 130.339844 117.628906 130.144531 127.046875 L 130.101562 129.222656 C 130.039062 132.316406 128.414062 135.128906 125.765625 136.734375 L 123.898438 137.855469 C 115.84375 142.726562 113.09375 153.015625 117.636719 161.261719 L 118.683594 163.160156 C 120.175781 165.878906 120.175781 169.113281 118.683594 171.828125 L 117.636719 173.738281 C 113.097656 181.988281 115.851562 192.265625 123.90625 197.136719 L 125.765625 198.265625 C 128.417969 199.871094 130.039062 202.675781 130.101562 205.769531 L 130.144531 207.945312 C 130.339844 217.359375 137.863281 224.886719 147.277344 225.082031 L 149.453125 225.125 C 152.546875 225.1875 155.359375 226.800781 156.96875 229.457031 L 158.089844 231.320312 C 161.375 236.746094 167.125 239.761719 173.046875 239.761719 C 175.90625 239.761719 178.804688 239.058594 181.492188 237.578125 L 183.402344 236.53125 C 186.117188 235.035156 189.363281 235.035156 192.082031 236.53125 L 193.984375 237.578125 C 202.230469 242.109375 212.519531 239.367188 217.386719 231.320312 L 218.515625 229.449219 C 220.125 226.796875 222.933594 225.183594 226.03125 225.125 L 228.199219 225.074219 C 237.613281 224.878906 245.144531 217.363281 245.339844 207.945312 L 245.382812 205.769531 C 245.445312 202.675781 247.058594 199.863281 249.710938 198.257812 L 251.578125 197.136719 C 259.625 192.265625 262.378906 181.988281 257.839844 173.738281 L 256.792969 171.828125 C 255.300781 169.113281 255.300781 165.878906 256.792969 163.160156 L 257.839844 161.261719 C 262.378906 153.015625 259.625 142.726562 251.570312 137.855469 L 249.710938 136.734375 C 247.054688 135.128906 245.4375 132.316406 245.375 129.222656 L 245.332031 127.046875 C 245.136719 117.632812 237.613281 110.113281 228.199219 109.917969 L 226.023438 109.867188 C 222.929688 109.804688 220.113281 108.191406 218.507812 105.535156 L 217.386719 103.683594 C 214.132812 98.308594 208.476562 95.292969 202.621094 95.230469 C 199.699219 95.195312 196.726562 95.90625 193.984375 97.414062 L 192.074219 98.460938 C 189.359375 99.957031 186.113281 99.957031 183.394531 98.460938 L 181.492188 97.414062 C 178.75 95.898438 175.777344 95.199219 172.855469 95.230469 Z M 218.707031 138.105469 L 225.875 142.6875 L 185.429688 205.886719 L 149.808594 173.839844 L 155.507812 167.527344 L 183.667969 192.867188 Z M 237.117188 231.867188 C 234.394531 232.902344 231.457031 233.519531 228.375 233.585938 L 226.199219 233.625 C 226.011719 233.628906 225.878906 233.707031 225.78125 233.867188 L 224.652344 235.726562 C 220.382812 242.785156 213.230469 247.257812 205.179688 248.097656 L 203.957031 250.894531 L 192.503906 277.058594 L 201.109375 296.726562 C 201.703125 298.089844 202.972656 299.039062 204.449219 299.234375 C 204.644531 299.257812 204.824219 299.277344 205.011719 299.277344 C 206.292969 299.277344 207.523438 298.691406 208.335938 297.679688 L 224.070312 278.019531 L 251.792969 278.019531 C 253.242188 278.019531 254.59375 277.28125 255.375 276.0625 C 256.152344 274.839844 256.253906 273.300781 255.648438 271.984375 Z M 138.582031 231.941406 L 120.101562 271.984375 C 119.496094 273.300781 119.59375 274.832031 120.375 276.054688 C 121.148438 277.277344 122.503906 278.019531 123.957031 278.019531 L 151.679688 278.019531 L 167.414062 297.679688 C 168.222656 298.691406 169.449219 299.277344 170.730469 299.277344 C 170.914062 299.277344 171.097656 299.257812 171.285156 299.234375 C 172.761719 299.039062 174.027344 298.089844 174.625 296.726562 L 196.167969 247.492188 C 193.992188 246.949219 191.875 246.136719 189.898438 245.050781 L 187.96875 243.996094 C 187.890625 243.949219 187.804688 243.929688 187.730469 243.929688 C 187.65625 243.929688 187.59375 243.949219 187.503906 243.996094 L 185.59375 245.042969 C 181.75 247.15625 177.410156 248.28125 173.046875 248.28125 C 163.878906 248.28125 155.570312 243.585938 150.824219 235.734375 L 149.691406 233.867188 C 149.59375 233.707031 149.46875 233.628906 149.277344 233.625 L 147.101562 233.585938 C 144.105469 233.519531 141.242188 232.925781 138.582031 231.941406 Z M 138.582031 231.941406 "/>
</g>
</g>
</svg>
