<?xml version="1.0" encoding="UTF-8"?>
<svg xmlns="http://www.w3.org/2000/svg" xmlns:xlink="http://www.w3.org/1999/xlink" width="375pt" height="374.999991pt" viewBox="0 0 375 374.999991" version="1.2">
<defs>
<clipPath id="clip1">
  <path d="M 111.3125 114 L 258 114 L 258 260.578125 L 111.3125 260.578125 Z M 111.3125 114 "/>
</clipPath>
</defs>
<g id="surface1">
<g clip-path="url(#clip1)" clip-rule="nonzero">
<path style=" stroke:none;fill-rule:evenodd;fill:rgb(0%,0%,0%);fill-opacity:1;" d="M 199.859375 211.878906 L 247.621094 259.605469 C 248.863281 260.878906 250.90625 260.878906 252.179688 259.605469 L 256.703125 255.082031 C 257.976562 253.804688 257.976562 251.761719 256.703125 250.554688 L 208.976562 202.761719 C 216.316406 193.445312 220.707031 181.679688 220.707031 168.910156 C 220.707031 138.710938 196.207031 114.210938 166.011719 114.210938 C 135.8125 114.210938 111.3125 138.710938 111.3125 168.910156 C 111.3125 199.109375 135.8125 223.609375 166.011719 223.609375 C 178.78125 223.609375 190.542969 219.21875 199.859375 211.878906 Z M 166.011719 217.171875 C 192.65625 217.171875 214.273438 195.554688 214.273438 168.910156 C 214.273438 142.300781 192.65625 120.648438 166.011719 120.648438 C 139.363281 120.648438 117.746094 142.300781 117.746094 168.910156 C 117.746094 195.554688 139.363281 217.171875 166.011719 217.171875 Z M 166.011719 217.171875 "/>
</g>
</g>
</svg>
