<svg version="1.2" baseProfile="tiny-ps" xmlns="http://www.w3.org/2000/svg" viewBox="0 0 211 197" width="211" height="197">
	<title>car-svg</title>
	<defs>
		<clipPath clipPathUnits="userSpaceOnUse" id="cp1">
			<path d="M54 128L84 128L84 157.34L54 157.34L54 128Z" />
		</clipPath>
		<clipPath clipPathUnits="userSpaceOnUse" id="cp2">
			<path d="M135 128L165 128L165 157.34L135 157.34L135 128Z" />
		</clipPath>
		<clipPath clipPathUnits="userSpaceOnUse" id="cp3">
			<path d="M31.5 41.84L181.5 41.84L181.5 141L31.5 141L31.5 41.84Z" />
		</clipPath>
	</defs>
	<style>
		tspan { white-space:pre }
		.shp0 { fill: #000000 } 
	</style>
	<g id="surface1">
		<g id="Clip-Path" clip-path="url(#cp1)">
			<g id="Layer">
				<path id="Layer" class="shp0" d="M83.44 143.07C83.44 144.02 83.34 144.96 83.16 145.89C82.98 146.82 82.7 147.73 82.34 148.61C81.98 149.48 81.54 150.32 81.01 151.11C80.48 151.89 79.89 152.63 79.21 153.3C78.55 153.97 77.82 154.57 77.03 155.09C76.25 155.62 75.41 156.07 74.54 156.43C73.66 156.79 72.77 157.07 71.84 157.25C70.91 157.44 69.97 157.53 69.02 157.53C68.08 157.53 67.14 157.44 66.21 157.25C65.28 157.07 64.38 156.79 63.51 156.43C62.63 156.07 61.8 155.62 61.02 155.09C60.23 154.57 59.5 153.97 58.83 153.3C58.16 152.63 57.56 151.89 57.04 151.11C56.51 150.32 56.07 149.48 55.71 148.61C55.34 147.73 55.07 146.82 54.89 145.89C54.7 144.96 54.61 144.02 54.61 143.07C54.61 142.12 54.7 141.18 54.89 140.25C55.07 139.32 55.34 138.41 55.71 137.54C56.07 136.66 56.51 135.82 57.04 135.04C57.56 134.25 58.16 133.52 58.83 132.84C59.5 132.17 60.23 131.57 61.02 131.05C61.8 130.52 62.63 130.07 63.51 129.71C64.38 129.35 65.28 129.07 66.21 128.89C67.14 128.7 68.08 128.61 69.02 128.61C69.97 128.61 70.91 128.7 71.84 128.89C72.77 129.07 73.66 129.35 74.54 129.71C75.41 130.07 76.25 130.52 77.03 131.05C77.82 131.57 78.55 132.17 79.21 132.84C79.89 133.52 80.48 134.25 81.01 135.04C81.54 135.82 81.98 136.66 82.34 137.54C82.7 138.41 82.98 139.32 83.16 140.25C83.34 141.18 83.44 142.12 83.44 143.07Z" />
			</g>
		</g>
		<g id="Clip-Path" clip-path="url(#cp2)">
			<g id="Layer">
				<path id="Layer" class="shp0" d="M164.16 143.07C164.16 144.02 164.06 144.96 163.88 145.89C163.7 146.82 163.42 147.73 163.06 148.61C162.7 149.48 162.25 150.32 161.73 151.11C161.2 151.89 160.61 152.63 159.93 153.3C159.27 153.97 158.54 154.57 157.75 155.09C156.96 155.62 156.13 156.07 155.26 156.43C154.38 156.79 153.48 157.07 152.55 157.25C151.63 157.44 150.69 157.53 149.74 157.53C148.8 157.53 147.86 157.44 146.93 157.25C146 157.07 145.1 156.79 144.23 156.43C143.35 156.07 142.52 155.62 141.73 155.09C140.95 154.57 140.22 153.97 139.55 153.3C138.88 152.63 138.28 151.89 137.76 151.11C137.23 150.32 136.79 149.48 136.43 148.61C136.06 147.73 135.79 146.82 135.61 145.89C135.42 144.96 135.33 144.02 135.33 143.07C135.33 142.12 135.42 141.18 135.61 140.25C135.79 139.32 136.06 138.41 136.43 137.54C136.79 136.66 137.23 135.82 137.76 135.04C138.28 134.25 138.88 133.52 139.55 132.84C140.22 132.17 140.95 131.57 141.73 131.05C142.52 130.52 143.35 130.07 144.23 129.71C145.1 129.35 146 129.07 146.93 128.89C147.86 128.7 148.8 128.61 149.74 128.61C150.69 128.61 151.63 128.7 152.55 128.89C153.48 129.07 154.38 129.35 155.26 129.71C156.13 130.07 156.96 130.52 157.75 131.05C158.54 131.57 159.27 132.17 159.93 132.84C160.61 133.52 161.2 134.25 161.73 135.04C162.25 135.82 162.7 136.66 163.06 137.54C163.42 138.41 163.7 139.32 163.88 140.25C164.06 141.18 164.16 142.12 164.16 143.07Z" />
			</g>
		</g>
		<path id="Layer" class="shp0" d="M77.11 81L71.09 81L71.09 88.95L75.73 88.95C76.5 88.95 77.21 88.88 77.88 88.77C78.48 88.66 79.02 88.44 79.45 88.14C79.88 87.83 80.21 87.44 80.48 86.92C80.73 86.43 80.86 85.73 80.86 84.88C80.86 83.68 80.58 82.75 79.99 82.02C79.44 81.34 78.46 81 77.11 81Z" />
		<g id="Clip-Path" clip-path="url(#cp3)">
			<g id="Layer">
				<path id="Layer" fill-rule="evenodd" class="shp0" d="M181.45 105.47C181.45 110.95 181.45 134.39 181.45 134.39C181.45 137.58 178.86 140.18 175.69 140.18L169.96 140.18C168.54 130.21 160.06 122.5 149.74 122.5C139.43 122.5 130.95 130.21 129.53 140.17L89.24 140.18C87.82 130.21 79.34 122.5 69.02 122.5C58.7 122.5 50.22 130.21 48.81 140.18L37.31 140.18C34.14 140.18 31.55 137.58 31.55 134.39L31.55 47.63C31.55 44.44 34.14 41.84 37.31 41.84L129.56 41.84C132.74 41.84 135.33 44.44 135.33 47.63L135.33 64.98L155.51 64.98C159.74 64.98 161.52 67.58 164.16 70.77L177.04 93.79C177.04 93.79 181.45 100 181.45 105.47ZM60.61 76.07L42.81 76.07L42.81 105.81L47.9 105.81L47.9 93.18L58.95 93.18L58.95 88.26L47.9 88.26L47.9 81L60.61 81L60.61 76.07ZM81.82 105.8L87.79 105.8L86.65 104.33C86.36 103.95 86.14 103.5 85.99 103.01C85.82 102.42 85.69 101.82 85.6 101.21C85.51 100.57 85.46 99.91 85.44 99.23C85.41 98.52 85.38 97.82 85.32 97.09C85.25 96.38 85.13 95.7 85 95.04C84.84 94.31 84.6 93.66 84.29 93.09C83.96 92.48 83.51 91.95 82.94 91.5C82.88 91.45 82.82 91.41 82.76 91.36C83.61 90.81 84.27 90.09 84.76 89.21C85.55 87.8 85.95 86.14 85.95 84.29C85.95 81.76 85.16 79.73 83.59 78.25C82.06 76.8 79.95 76.07 77.29 76.07L66.02 76.07L66.02 105.81L71.09 105.81L71.09 93.87L76.97 93.87C77.66 93.87 78.23 93.98 78.62 94.19C79 94.39 79.31 94.67 79.55 95.01C79.8 95.38 79.98 95.82 80.09 96.3C80.23 96.89 80.34 97.51 80.44 98.2C80.55 98.81 80.63 99.46 80.65 100.13L80.71 102.11C80.73 102.77 80.8 103.36 80.89 103.9C81 104.56 81.23 105.1 81.57 105.51L81.82 105.81L81.82 105.8ZM106.7 105.81L106.7 100.89L94.24 100.89L94.24 93.18L105.62 93.18L105.62 88.26L94.24 88.26L94.24 81L106.59 81L106.59 76.07L89.16 76.07L89.16 105.81L106.7 105.81ZM129.95 105.81L129.95 100.89L117.28 100.89L117.28 93.18L128.86 93.18L128.86 88.26L117.28 88.26L117.28 81L129.84 81L129.84 76.07L112.2 76.07L112.2 105.81L129.95 105.81ZM171.8 105.47C171.8 104.03 170.63 102.14 169.55 100.55L157.42 77.91C157.42 77.91 156.13 76.55 155.2 76.55L141.09 76.55L141.09 105.47L171.8 105.47Z" />
			</g>
		</g>
	</g>
</svg>