<?xml version="1.0" encoding="UTF-8"?>
<svg xmlns="http://www.w3.org/2000/svg" xmlns:xlink="http://www.w3.org/1999/xlink" width="375pt" height="374.999991pt" viewBox="0 0 375 374.999991" version="1.2">
<defs>
<clipPath id="clip1">
  <path d="M 180.007812 120.972656 L 245.972656 120.972656 L 245.972656 186.9375 L 180.007812 186.9375 Z M 180.007812 120.972656 "/>
</clipPath>
<clipPath id="clip2">
  <path d="M 180.007812 196.332031 L 245.972656 196.332031 L 245.972656 262.296875 L 180.007812 262.296875 Z M 180.007812 196.332031 "/>
</clipPath>
<clipPath id="clip3">
  <path d="M 196.265625 136.027344 L 230.011719 136.027344 L 230.011719 166.777344 L 196.265625 166.777344 Z M 196.265625 136.027344 "/>
</clipPath>
<clipPath id="clip4">
  <path d="M 40.070312 164 L 160 164 L 160 249.863281 L 40.070312 249.863281 Z M 40.070312 164 "/>
</clipPath>
<clipPath id="clip5">
  <path d="M 40.070312 163.613281 L 160 163.613281 L 160 249.863281 L 40.070312 249.863281 Z M 40.070312 163.613281 "/>
</clipPath>
</defs>
<g id="surface1">
<g clip-path="url(#clip1)" clip-rule="nonzero">
<path style=" stroke:none;fill-rule:nonzero;fill:rgb(0%,0%,0%);fill-opacity:1;" d="M 180.007812 186.9375 L 245.972656 186.9375 L 245.972656 120.972656 L 180.007812 120.972656 Z M 182.648438 123.613281 L 243.335938 123.613281 L 243.335938 184.300781 L 182.648438 184.300781 Z M 182.648438 123.613281 "/>
</g>
<g clip-path="url(#clip2)" clip-rule="nonzero">
<path style=" stroke:none;fill-rule:nonzero;fill:rgb(0%,0%,0%);fill-opacity:1;" d="M 180.007812 262.296875 L 245.972656 262.296875 L 245.972656 196.332031 L 180.007812 196.332031 Z M 182.648438 198.972656 L 243.335938 198.972656 L 243.335938 259.660156 L 182.648438 259.660156 Z M 182.648438 198.972656 "/>
</g>
<g clip-path="url(#clip3)" clip-rule="nonzero">
<path style=" stroke:none;fill-rule:nonzero;fill:rgb(6.269836%,5.879211%,5.099487%);fill-opacity:1;" d="M 197.828125 152.460938 C 197.480469 152.101562 196.902344 152.09375 196.542969 152.441406 C 196.183594 152.792969 196.175781 153.375 196.523438 153.734375 L 203.453125 167.074219 L 229.917969 137.632812 C 230.296875 137.304688 230.339844 136.726562 230.007812 136.34375 C 229.679688 135.964844 229.105469 135.921875 228.726562 136.253906 L 203.457031 158.304688 L 197.828125 152.460938 "/>
</g>
<g clip-path="url(#clip4)" clip-rule="nonzero">
<path style=" stroke:none;fill-rule:nonzero;fill:rgb(0%,0%,0%);fill-opacity:1;" d="M 157.773438 171.433594 C 155.546875 168.714844 151.535156 168.3125 148.8125 170.542969 L 111.683594 200.972656 C 111.207031 200.375 110.710938 199.765625 110.199219 199.144531 L 119.625 191.417969 C 120.691406 190.542969 119.75 187.625 117.519531 184.90625 C 115.292969 182.1875 112.617188 180.691406 111.550781 181.566406 L 101.714844 189.625 C 101.15625 189.035156 100.601562 188.445312 100.039062 187.863281 L 108.453125 180.96875 C 109.398438 180.191406 108.359375 177.355469 106.128906 174.632812 C 103.902344 171.917969 101.324219 170.339844 100.378906 171.117188 L 91.058594 178.753906 C 90.378906 178.082031 89.71875 177.433594 89.089844 176.820312 L 94.96875 172 C 95.714844 171.390625 94.894531 169.164062 93.144531 167.03125 C 91.398438 164.898438 89.378906 163.660156 88.632812 164.269531 L 81.300781 170.65625 C 76.34375 174.632812 47.726562 197.84375 45.308594 205.769531 C 42.660156 214.445312 40.65625 220.0625 40.65625 220.0625 L 64.671875 249.367188 C 64.671875 249.367188 86.375 248.542969 93.445312 245.894531 C 106.460938 241.015625 119.738281 234.433594 129.128906 229.886719 C 138.519531 225.339844 137.476562 212.164062 118.257812 218.652344 C 102.039062 224.132812 101.464844 223.683594 101.464844 223.683594 C 101.464844 223.683594 111.375 217.785156 117.171875 212.945312 C 117.292969 212.847656 117.382812 212.730469 117.460938 212.601562 L 156.886719 180.398438 C 159.609375 178.167969 160.007812 174.15625 157.773438 171.433594 "/>
</g>
<g clip-path="url(#clip5)" clip-rule="nonzero">
<path style=" stroke:none;fill-rule:nonzero;fill:rgb(13.729858%,12.159729%,12.548828%);fill-opacity:1;" d="M 157.773438 171.433594 L 158.152344 171.121094 C 156.800781 169.46875 154.828125 168.609375 152.84375 168.609375 C 151.316406 168.609375 149.773438 169.121094 148.5 170.164062 L 111.371094 200.59375 L 111.683594 200.972656 L 112.066406 200.667969 C 111.589844 200.066406 111.089844 199.453125 110.574219 198.832031 L 110.199219 199.144531 L 110.507812 199.523438 L 119.9375 191.796875 C 120.160156 191.613281 120.320312 191.371094 120.417969 191.109375 C 120.511719 190.84375 120.554688 190.558594 120.554688 190.253906 C 120.550781 189.476562 120.292969 188.578125 119.835938 187.609375 C 119.382812 186.640625 118.726562 185.605469 117.898438 184.59375 C 116.972656 183.464844 115.972656 182.539062 115.019531 181.882812 C 114.539062 181.554688 114.074219 181.296875 113.625 181.113281 C 113.175781 180.933594 112.746094 180.828125 112.335938 180.824219 C 111.941406 180.824219 111.546875 180.929688 111.238281 181.1875 L 101.402344 189.246094 L 101.714844 189.625 L 102.070312 189.289062 C 101.515625 188.699219 100.953125 188.109375 100.394531 187.523438 L 100.039062 187.863281 L 100.351562 188.242188 L 108.761719 181.347656 C 108.957031 181.191406 109.09375 180.976562 109.175781 180.753906 C 109.257812 180.523438 109.292969 180.285156 109.292969 180.03125 C 109.292969 179.648438 109.21875 179.242188 109.089844 178.804688 C 108.699219 177.496094 107.792969 175.894531 106.507812 174.324219 C 105.5625 173.167969 104.554688 172.214844 103.613281 171.535156 C 103.140625 171.195312 102.683594 170.925781 102.25 170.734375 C 101.8125 170.542969 101.402344 170.429688 101.003906 170.425781 C 100.671875 170.425781 100.335938 170.515625 100.066406 170.738281 L 90.746094 178.375 L 91.058594 178.753906 L 91.402344 178.402344 C 90.722656 177.730469 90.0625 177.085938 89.429688 176.46875 L 89.089844 176.820312 L 89.398438 177.199219 L 95.28125 172.378906 C 95.449219 172.242188 95.566406 172.058594 95.636719 171.867188 C 95.707031 171.675781 95.734375 171.472656 95.734375 171.265625 C 95.734375 170.953125 95.675781 170.625 95.570312 170.273438 C 95.257812 169.226562 94.539062 167.960938 93.523438 166.722656 C 92.777344 165.808594 91.980469 165.050781 91.230469 164.511719 C 90.855469 164.242188 90.492188 164.027344 90.144531 163.871094 C 89.796875 163.71875 89.460938 163.625 89.125 163.621094 C 88.847656 163.621094 88.554688 163.695312 88.324219 163.890625 L 88.3125 163.898438 L 80.976562 170.289062 L 81.300781 170.65625 L 80.992188 170.273438 C 78.511719 172.265625 70.113281 179.066406 62.023438 186.367188 C 57.980469 190.019531 54.011719 193.792969 50.894531 197.164062 C 49.335938 198.851562 47.992188 200.433594 46.949219 201.859375 C 45.910156 203.285156 45.171875 204.539062 44.839844 205.625 C 43.515625 209.957031 42.355469 213.527344 41.523438 216.011719 C 41.109375 217.253906 40.777344 218.226562 40.546875 218.886719 C 40.433594 219.21875 40.34375 219.46875 40.285156 219.640625 C 40.226562 219.808594 40.195312 219.894531 40.195312 219.894531 C 40.136719 220.058594 40.167969 220.238281 40.277344 220.371094 L 64.292969 249.675781 C 64.390625 249.796875 64.539062 249.863281 64.691406 249.855469 C 64.695312 249.855469 70.125 249.648438 76.449219 249.113281 C 79.609375 248.84375 82.992188 248.492188 86.039062 248.039062 C 89.085938 247.585938 91.78125 247.039062 93.617188 246.355469 C 106.664062 241.464844 119.953125 234.875 129.339844 230.328125 C 131.253906 229.402344 132.757812 228.128906 133.789062 226.714844 C 134.820312 225.300781 135.382812 223.742188 135.386719 222.25 C 135.386719 221.460938 135.226562 220.691406 134.894531 219.984375 C 134.394531 218.921875 133.507812 218.011719 132.246094 217.382812 C 130.984375 216.753906 129.359375 216.398438 127.34375 216.398438 C 124.875 216.398438 121.8125 216.933594 118.097656 218.1875 C 111.136719 220.539062 107.0625 221.796875 104.6875 222.464844 C 103.5 222.800781 102.738281 222.984375 102.257812 223.085938 C 101.777344 223.1875 101.574219 223.203125 101.542969 223.199219 L 101.542969 223.203125 L 101.542969 223.199219 L 101.542969 223.203125 L 101.542969 223.199219 L 101.515625 223.539062 L 101.605469 223.214844 C 101.570312 223.203125 101.546875 223.203125 101.542969 223.199219 L 101.515625 223.539062 L 101.605469 223.214844 L 101.476562 223.667969 L 101.765625 223.296875 C 101.699219 223.242188 101.640625 223.226562 101.605469 223.214844 L 101.476562 223.667969 L 101.765625 223.296875 L 101.464844 223.683594 L 101.714844 224.105469 C 101.71875 224.101562 104.203125 222.625 107.414062 220.539062 C 110.621094 218.457031 114.558594 215.765625 117.488281 213.320312 C 117.65625 213.179688 117.78125 213.019531 117.878906 212.867188 L 117.460938 212.601562 L 117.773438 212.984375 L 157.199219 180.777344 C 158.851562 179.421875 159.710938 177.449219 159.710938 175.46875 C 159.710938 173.9375 159.199219 172.398438 158.152344 171.121094 L 157.773438 171.433594 L 157.398438 171.746094 C 158.292969 172.839844 158.730469 174.15625 158.730469 175.46875 C 158.726562 177.167969 157.996094 178.855469 156.574219 180.019531 L 156.578125 180.015625 L 117.152344 212.222656 C 117.113281 212.257812 117.078125 212.296875 117.050781 212.339844 C 116.984375 212.4375 116.925781 212.511719 116.859375 212.566406 C 113.988281 214.964844 110.070312 217.644531 106.878906 219.71875 C 105.28125 220.753906 103.863281 221.640625 102.847656 222.269531 C 102.339844 222.582031 101.929688 222.832031 101.648438 223 C 101.367188 223.171875 101.214844 223.261719 101.214844 223.261719 C 101.074219 223.34375 100.984375 223.492188 100.976562 223.652344 C 100.964844 223.8125 101.035156 223.96875 101.164062 224.070312 C 101.257812 224.140625 101.328125 224.15625 101.382812 224.167969 C 101.4375 224.179688 101.484375 224.183594 101.542969 224.183594 C 101.703125 224.179688 101.945312 224.152344 102.460938 224.046875 C 103.992188 223.722656 107.949219 222.652344 118.414062 219.117188 C 122.050781 217.886719 125.015625 217.378906 127.34375 217.382812 C 129.878906 217.378906 131.652344 217.980469 132.773438 218.867188 C 133.332031 219.316406 133.738281 219.832031 134.003906 220.398438 C 134.273438 220.96875 134.402344 221.59375 134.402344 222.25 C 134.40625 223.492188 133.929688 224.863281 133 226.136719 C 132.070312 227.410156 130.691406 228.585938 128.914062 229.445312 C 119.523438 233.992188 106.257812 240.570312 93.273438 245.4375 C 91.570312 246.074219 88.90625 246.625 85.894531 247.070312 C 81.375 247.742188 76.058594 248.191406 71.878906 248.476562 C 69.789062 248.617188 67.980469 248.71875 66.699219 248.78125 C 66.054688 248.816406 65.542969 248.835938 65.195312 248.851562 C 64.84375 248.867188 64.65625 248.875 64.652344 248.875 L 64.671875 249.367188 L 65.050781 249.054688 L 41.035156 219.75 L 40.65625 220.0625 L 41.117188 220.226562 C 41.121094 220.21875 43.128906 214.597656 45.777344 205.910156 C 46.046875 205.015625 46.734375 203.8125 47.742188 202.4375 C 49.503906 200.023438 52.238281 197.058594 55.410156 193.929688 C 64.921875 184.535156 78.359375 173.640625 81.605469 171.039062 L 81.621094 171.027344 L 88.957031 164.636719 L 88.632812 164.269531 L 88.945312 164.648438 C 88.96875 164.628906 89.007812 164.605469 89.125 164.605469 C 89.261719 164.601562 89.480469 164.652344 89.75 164.769531 C 90.148438 164.945312 90.648438 165.269531 91.167969 165.707031 C 91.691406 166.148438 92.242188 166.703125 92.765625 167.34375 C 93.398438 168.113281 93.90625 168.898438 94.246094 169.59375 C 94.417969 169.941406 94.546875 170.265625 94.628906 170.554688 C 94.714844 170.835938 94.753906 171.085938 94.753906 171.265625 C 94.753906 171.386719 94.734375 171.476562 94.71875 171.53125 C 94.695312 171.585938 94.675781 171.605469 94.660156 171.621094 L 88.777344 176.441406 C 88.667969 176.527344 88.605469 176.660156 88.597656 176.796875 C 88.59375 176.9375 88.644531 177.074219 88.746094 177.171875 C 89.375 177.785156 90.035156 178.433594 90.714844 179.101562 C 90.894531 179.277344 91.175781 179.292969 91.371094 179.132812 L 100.6875 171.496094 C 100.746094 171.445312 100.832031 171.410156 101.003906 171.410156 C 101.203125 171.40625 101.503906 171.476562 101.855469 171.628906 C 102.382812 171.863281 103.027344 172.28125 103.699219 172.847656 C 104.371094 173.410156 105.078125 174.125 105.75 174.945312 C 106.5625 175.9375 107.214844 176.945312 107.652344 177.84375 C 107.871094 178.292969 108.039062 178.710938 108.148438 179.082031 C 108.261719 179.457031 108.3125 179.78125 108.3125 180.03125 C 108.3125 180.195312 108.289062 180.324219 108.253906 180.414062 C 108.222656 180.503906 108.183594 180.554688 108.140625 180.589844 L 99.730469 187.484375 C 99.625 187.570312 99.558594 187.695312 99.550781 187.832031 C 99.542969 187.96875 99.59375 188.101562 99.6875 188.199219 C 100.242188 188.785156 100.800781 189.371094 101.355469 189.960938 C 101.53125 190.148438 101.824219 190.167969 102.023438 190.003906 L 111.859375 181.945312 C 111.960938 181.859375 112.101562 181.808594 112.335938 181.804688 C 112.570312 181.804688 112.890625 181.875 113.253906 182.023438 C 113.804688 182.242188 114.453125 182.640625 115.125 183.1875 C 115.792969 183.730469 116.488281 184.417969 117.140625 185.21875 C 117.917969 186.167969 118.535156 187.140625 118.949219 188.027344 C 119.367188 188.90625 119.574219 189.707031 119.574219 190.253906 C 119.574219 190.46875 119.542969 190.640625 119.496094 190.769531 C 119.449219 190.894531 119.386719 190.976562 119.3125 191.039062 L 109.886719 198.765625 C 109.785156 198.847656 109.722656 198.96875 109.710938 199.097656 C 109.695312 199.226562 109.738281 199.355469 109.820312 199.457031 C 110.332031 200.074219 110.824219 200.683594 111.296875 201.277344 C 111.378906 201.382812 111.5 201.445312 111.628906 201.460938 C 111.761719 201.472656 111.890625 201.4375 111.992188 201.351562 L 149.125 170.921875 C 150.21875 170.027344 151.535156 169.589844 152.84375 169.589844 C 154.546875 169.589844 156.234375 170.324219 157.394531 171.746094 L 157.773438 171.433594 "/>
</g>
</g>
</svg>
