<?xml version="1.0" encoding="UTF-8"?>
<svg xmlns="http://www.w3.org/2000/svg" xmlns:xlink="http://www.w3.org/1999/xlink" width="375pt" height="374.999991pt" viewBox="0 0 375 374.999991" version="1.2">
<g id="surface1">
<path style=" stroke:none;fill-rule:nonzero;fill:rgb(100%,100%,100%);fill-opacity:1;" d="M 174.050781 97.667969 C 168.921875 97.824219 163.96875 100.503906 161.144531 105.191406 L 160.148438 106.851562 C 158.722656 109.210938 156.214844 110.664062 153.472656 110.722656 L 153.464844 110.722656 L 151.527344 110.765625 C 143.222656 110.941406 136.457031 117.730469 136.289062 126.070312 L 136.246094 128.011719 C 136.1875 130.769531 134.734375 133.292969 132.390625 134.71875 L 130.734375 135.726562 C 123.628906 140.046875 121.148438 149.324219 125.148438 156.636719 L 125.15625 156.636719 L 126.089844 158.339844 C 127.414062 160.753906 127.414062 163.671875 126.089844 166.085938 L 125.15625 167.78125 C 121.15625 175.09375 123.632812 184.375 130.742188 188.691406 L 132.394531 189.695312 C 134.746094 191.125 136.195312 193.644531 136.253906 196.398438 L 136.253906 196.40625 L 136.296875 198.347656 C 136.4375 205.09375 140.914062 210.761719 147.007812 212.796875 L 127.359375 255.550781 C 127.226562 255.839844 127.128906 256.140625 127.070312 256.453125 C 127.015625 256.769531 126.996094 257.085938 127.019531 257.402344 C 127.039062 257.722656 127.101562 258.03125 127.199219 258.335938 C 127.300781 258.636719 127.433594 258.921875 127.605469 259.191406 C 127.777344 259.460938 127.976562 259.703125 128.210938 259.921875 C 128.441406 260.136719 128.699219 260.324219 128.976562 260.476562 C 129.253906 260.628906 129.546875 260.746094 129.855469 260.824219 C 130.164062 260.902344 130.476562 260.941406 130.792969 260.941406 L 155.449219 260.941406 L 169.441406 278.507812 C 169.644531 278.761719 169.878906 278.988281 170.136719 279.183594 C 170.398438 279.378906 170.683594 279.535156 170.984375 279.65625 C 171.285156 279.78125 171.597656 279.859375 171.921875 279.902344 C 172.246094 279.941406 172.566406 279.941406 172.890625 279.898438 C 173.214844 279.855469 173.527344 279.773438 173.828125 279.648438 C 174.128906 279.523438 174.410156 279.363281 174.667969 279.167969 C 174.929688 278.972656 175.160156 278.746094 175.363281 278.488281 C 175.5625 278.230469 175.730469 277.953125 175.859375 277.652344 L 187.640625 250.617188 L 199.425781 277.652344 C 199.554688 277.953125 199.722656 278.230469 199.921875 278.488281 C 200.125 278.746094 200.355469 278.972656 200.617188 279.167969 C 200.875 279.363281 201.15625 279.523438 201.457031 279.648438 C 201.757812 279.773438 202.070312 279.855469 202.394531 279.898438 C 202.71875 279.941406 203.039062 279.941406 203.363281 279.902344 C 203.6875 279.859375 204 279.78125 204.300781 279.65625 C 204.601562 279.535156 204.886719 279.378906 205.144531 279.183594 C 205.40625 278.988281 205.640625 278.761719 205.84375 278.507812 L 219.835938 260.941406 L 244.492188 260.941406 C 244.808594 260.941406 245.121094 260.902344 245.429688 260.824219 C 245.738281 260.746094 246.03125 260.628906 246.308594 260.476562 C 246.585938 260.324219 246.84375 260.136719 247.074219 259.921875 C 247.308594 259.703125 247.507812 259.460938 247.679688 259.191406 C 247.851562 258.921875 247.984375 258.636719 248.085938 258.335938 C 248.183594 258.03125 248.246094 257.722656 248.265625 257.402344 C 248.289062 257.085938 248.269531 256.769531 248.210938 256.453125 C 248.15625 256.140625 248.058594 255.839844 247.925781 255.550781 L 228.246094 212.730469 C 234.238281 210.640625 238.621094 205.019531 238.757812 198.347656 L 238.757812 198.34375 L 238.804688 196.40625 L 238.804688 196.398438 C 238.859375 193.644531 240.3125 191.117188 242.660156 189.695312 L 244.320312 188.683594 C 251.429688 184.367188 253.902344 175.09375 249.898438 167.78125 L 249.890625 167.777344 L 248.945312 166.0625 C 247.628906 163.652344 247.632812 160.742188 248.953125 158.332031 L 249.890625 156.636719 L 249.890625 156.628906 C 253.890625 149.320312 251.417969 140.046875 244.3125 135.726562 L 244.308594 135.71875 L 242.652344 134.71875 C 240.300781 133.289062 238.851562 130.769531 238.796875 128.011719 L 238.796875 128.003906 L 238.75 126.070312 L 238.75 126.0625 C 238.578125 117.722656 231.820312 110.929688 223.511719 110.761719 L 221.578125 110.714844 C 218.832031 110.660156 216.320312 109.199219 214.898438 106.84375 L 213.894531 105.183594 C 209.59375 98.042969 200.351562 95.554688 193.070312 99.574219 L 193.070312 99.582031 L 191.371094 100.515625 C 188.96875 101.847656 186.066406 101.847656 183.660156 100.515625 L 181.96875 99.582031 C 180.148438 98.578125 178.210938 97.976562 176.25 97.757812 C 175.519531 97.675781 174.785156 97.648438 174.050781 97.667969 Z M 173.859375 105.242188 C 175.355469 105.132812 176.90625 105.449219 178.328125 106.234375 L 180.011719 107.167969 C 184.679688 109.75 190.359375 109.75 195.027344 107.167969 L 196.722656 106.226562 L 196.722656 106.234375 C 200.515625 104.140625 205.183594 105.390625 207.425781 109.113281 L 208.429688 110.773438 C 211.183594 115.347656 216.09375 118.199219 221.414062 118.308594 L 223.359375 118.355469 C 227.6875 118.445312 231.105469 121.867188 231.195312 126.21875 L 231.195312 126.226562 L 231.230469 128.167969 C 231.34375 133.515625 234.183594 138.445312 238.738281 141.214844 L 240.390625 142.222656 C 244.09375 144.472656 245.347656 149.152344 243.265625 152.964844 L 242.328125 154.667969 C 239.753906 159.355469 239.753906 165.054688 242.328125 169.742188 L 242.335938 169.75 L 242.335938 169.757812 L 243.273438 171.441406 C 245.359375 175.25 244.101562 179.9375 240.398438 182.1875 L 238.746094 183.195312 C 234.183594 185.964844 231.347656 190.894531 231.238281 196.242188 L 231.203125 198.1875 L 231.203125 198.195312 C 231.113281 202.542969 227.695312 205.96875 223.363281 206.054688 L 221.421875 206.101562 C 216.097656 206.214844 211.195312 209.058594 208.4375 213.628906 L 208.4375 213.636719 L 207.433594 215.296875 C 205.191406 219.019531 200.523438 220.269531 196.726562 218.175781 L 196.726562 218.183594 L 195.035156 217.242188 C 190.367188 214.660156 184.6875 214.660156 180.019531 217.242188 L 178.328125 218.183594 L 178.328125 218.175781 C 174.535156 220.269531 169.867188 219.015625 167.625 215.296875 L 166.621094 213.636719 C 163.863281 209.0625 158.957031 206.214844 153.632812 206.101562 L 153.625 206.101562 L 151.691406 206.054688 C 147.359375 205.96875 143.941406 202.542969 143.851562 198.195312 L 143.851562 198.1875 L 143.816406 196.242188 C 143.707031 190.894531 140.867188 185.964844 136.3125 183.195312 L 134.65625 182.1875 C 130.949219 179.9375 129.695312 175.25 131.785156 171.441406 L 132.714844 169.75 L 132.714844 169.742188 C 135.28125 165.054688 135.285156 159.355469 132.714844 154.667969 L 131.777344 152.972656 L 131.785156 152.972656 C 129.695312 149.160156 130.945312 144.472656 134.648438 142.222656 L 136.304688 141.214844 C 140.859375 138.449219 143.695312 133.519531 143.808594 128.175781 L 143.808594 128.167969 L 143.851562 126.226562 C 143.941406 121.875 147.351562 118.445312 151.683594 118.355469 L 151.691406 118.355469 L 153.625 118.316406 C 158.953125 118.207031 163.859375 115.355469 166.621094 110.78125 L 167.625 109.121094 C 168.746094 107.261719 170.46875 106.011719 172.386719 105.492188 C 172.867188 105.363281 173.359375 105.277344 173.859375 105.242188 Z M 215.070312 135.949219 L 183.90625 184.863281 L 158.855469 162.226562 L 153.789062 167.878906 L 185.46875 196.503906 L 221.4375 140.042969 Z M 220.433594 213.867188 L 238.574219 253.347656 L 218.015625 253.347656 C 217.441406 253.347656 216.894531 253.472656 216.378906 253.722656 C 215.859375 253.972656 215.421875 254.320312 215.0625 254.773438 L 203.839844 268.847656 L 191.773438 241.132812 L 198.140625 226.519531 C 204.21875 227.472656 210.554688 224.785156 213.902344 219.230469 L 214.90625 217.566406 C 216.125 215.546875 218.15625 214.25 220.433594 213.867188 Z M 154.835938 213.894531 C 157.027344 214.328125 158.972656 215.613281 160.148438 217.566406 L 161.152344 219.230469 C 165.453125 226.363281 174.695312 228.855469 181.976562 224.835938 L 181.976562 224.828125 L 183.675781 223.894531 C 185.984375 222.617188 188.738281 222.601562 191.085938 223.773438 L 171.441406 268.847656 L 160.222656 254.773438 C 159.863281 254.320312 159.425781 253.972656 158.90625 253.722656 C 158.390625 253.472656 157.84375 253.347656 157.269531 253.347656 L 136.710938 253.347656 Z M 154.835938 213.894531 "/>
</g>
</svg>
